<?xml version="1.0" encoding="UTF-8"?><svg id="Layer_2" xmlns="http://www.w3.org/2000/svg" viewBox="0 0 441.11 126.67"><defs><style>.cls-1{fill:#fff;}</style></defs><g id="Layer_1-2"><polygon class="cls-1" points="17.83 106.67 0 90 95 35 171 90.17 151.5 108 151.5 92.33 94.5 52 18.17 95 17.83 106.67"/><polygon class="cls-1" points="17.83 71.67 0 55 95 0 171 55.17 151.5 73 151.5 57.33 94.5 17 18.17 60 17.83 71.67"/><rect class="cls-1" x="125.25" y="2" width="12" height="33"/><rect class="cls-1" x="141.25" y="13" width="12" height="33"/><polygon class="cls-1" points="30.58 126.67 30.58 99 85.5 71.5 85.5 126.67 68.58 126.67 68.58 93.94 48.92 102.37 48.92 126.67 30.58 126.67"/><polygon class="cls-1" points="117.25 82.33 117.25 98.08 127.58 102.67 127.58 89.67 117.25 82.33"/><polygon class="cls-1" points="117.25 104.33 117.25 120.5 127.58 122 127.58 107 117.25 104.33"/><polygon class="cls-1" points="130.58 108 130.58 122 137.25 122 137.25 109.83 130.58 108"/><polygon class="cls-1" points="130.58 91.17 130.58 104.33 137.25 105.83 137.25 94.17 130.58 91.17"/><g><path class="cls-1" d="M219.66,66.8l-3.23-8.7h-22.02l-3.23,8.7h-12.4l19.79-51.36h13.71l19.79,51.36h-12.4Zm-14.24-40.42l-8.01,22.1h16.01l-8.01-22.1Z"/><path class="cls-1" d="M236.83,66.8V15.45h27.03c9.78,0,14.78,6.24,14.78,13.09,0,6.39-4,10.78-8.85,11.78,5.54,.85,9.86,6.16,9.86,12.55,0,7.78-5.08,13.94-14.94,13.94h-27.87Zm30.64-36.34c0-3.16-2.31-5.39-6-5.39h-13.71v10.78h13.71c3.7,0,6-2.08,6-5.39Zm1,20.87c0-3.23-2.31-5.85-6.54-5.85h-14.17v11.7h14.17c4.08,0,6.54-2.16,6.54-5.85Z"/><path class="cls-1" d="M285.42,41.16c0-15.48,11.32-26.56,26.87-26.56s26.8,11.09,26.8,26.56-11.32,26.56-26.8,26.56-26.87-11.09-26.87-26.56Zm42.42,0c0-9.62-6.08-16.86-15.55-16.86s-15.63,7.24-15.63,16.86,6.08,16.86,15.63,16.86,15.55-7.31,15.55-16.86Z"/><path class="cls-1" d="M346.79,46.24V15.45h11.09v30.49c0,7.16,4.16,12.09,12.09,12.09s12.01-4.93,12.01-12.09V15.45h11.16v30.8c0,12.7-7.55,21.48-23.18,21.48s-23.18-8.78-23.18-21.48Z"/><path class="cls-1" d="M415.16,66.8V25.07h-15.01V15.45h40.96v9.62h-14.94v41.73h-11.01Z"/></g><g><path class="cls-1" d="M197.69,110.68l-5.59-10.12h-4.44v10.12h-6.06v-28.48h13.32c5.93,0,9.56,3.89,9.56,9.18s-3.16,7.73-6.23,8.45l6.4,10.84h-6.96Zm.6-19.3c0-2.39-1.84-3.84-4.27-3.84h-6.36v7.69h6.36c2.43,0,4.27-1.45,4.27-3.84Z"/><path class="cls-1" d="M209.04,110.68v-28.48h20.15v5.34h-14.09v6.02h13.79v5.34h-13.79v6.45h14.09v5.34h-20.15Z"/><path class="cls-1" d="M253.57,110.68l-1.75-4.82h-12.21l-1.79,4.82h-6.92l11.02-28.48h7.6l10.97,28.48h-6.92Zm-7.86-22.41l-4.44,12.25h8.88l-4.44-12.25Z"/><path class="cls-1" d="M263.13,110.68v-28.48h6.06v23.14h12.04v5.34h-18.1Z"/><path class="cls-1" d="M296.39,110.68v-28.48h20.15v5.34h-14.09v6.02h13.79v5.34h-13.79v6.45h14.09v5.34h-20.15Z"/><path class="cls-1" d="M319.35,106.67l3.29-4.61c2.01,2.09,5.12,3.84,9.05,3.84,3.33,0,4.95-1.54,4.95-3.16,0-5.04-16.39-1.58-16.39-12.3,0-4.74,4.1-8.67,10.8-8.67,4.53,0,8.28,1.37,11.1,3.97l-3.37,4.44c-2.31-2.13-5.38-3.12-8.28-3.12-2.6,0-4.06,1.15-4.06,2.86,0,4.53,16.35,1.49,16.35,12.13,0,5.21-3.71,9.14-11.4,9.14-5.46,0-9.39-1.84-12.04-4.53Z"/><path class="cls-1" d="M352.91,110.68v-23.14h-8.33v-5.34h22.71v5.34h-8.28v23.14h-6.11Z"/><path class="cls-1" d="M388.09,110.68l-1.75-4.82h-12.21l-1.79,4.82h-6.92l11.02-28.48h7.6l10.97,28.48h-6.92Zm-7.86-22.41l-4.44,12.25h8.88l-4.44-12.25Z"/><path class="cls-1" d="M401.49,110.68v-23.14h-8.33v-5.34h22.71v5.34h-8.28v23.14h-6.11Z"/><path class="cls-1" d="M419.76,110.68v-28.48h20.15v5.34h-14.09v6.02h13.79v5.34h-13.79v6.45h14.09v5.34h-20.15Z"/></g></g></svg>